<?xml version="1.0" encoding="UTF-8" standalone="no"?>
<svg xmlns="http://www.w3.org/2000/svg" width="300" height="250" version="1.0">
  <path d="M178.26455 245.75c-3.21924-3.34502-4.88192-7.13649-8.44178-19.25-3.07248-10.45507-4.23814-12.33441-7.28872-11.75126-1.40234.26808-3.78369.01843-5.29189-.55477-31.30683-11.89835-36.56544-15.47784-42.09663-28.65477-1.71704-4.09048-2.89493-8.02867-2.61754-8.75153.28728-.74866-2.0986-3.6055-5.5438-6.63809l-6.04814-5.32379-8.468025.70538c-8.444629.70344-8.467937.69884-8.436222-1.66289.017492-1.30256.692492-3.24179 1.5-4.30941C86.339312 158.49125 87 157.314 87 156.94276 87 156.20306 73.590264 150 71.991199 150 71.44604 150 71 150.7481 71 151.66245c0 2.73177-5.81044 10.9413-10.413512 14.71317-10.511202 8.61314-25.666317 7.0413-39.366026-4.08292l-4.279538-3.47501 2.779538-2.72963c10.359312-10.17331 19.058325-13.64728 32.259847-12.88306l8.145789.47155-4.400192-2.73874c-2.420105-1.50632-5.861291-4.58354-7.647078-6.83828C46.29304 131.84479 44.246193 130 43.530278 130c-1.44576 0-4.608407 1.57942-8.796542 4.39298-2.073659 1.39307-3.977546 1.74196-7.604122 1.3935-6.333265-.60855-19.7162914-9.35892-23.5276049-15.3833C2.1709041 118.14109 1 116.05457 1 115.76646c0-.2881 1.4625-1.13301 3.25-1.87758 4.3619039-1.81691 17.239764-1.5591 22.009209.44061l3.759209 1.57615-3.259209-4.05658c-1.792565-2.23113-6.317214-6.10853-10.054775-8.61645C7.8251249 97.274542 4.5034455 93.100607 2.1946538 85c-.235137-.825-.6317429-5.55-.8813463-10.5-.33868805-6.716677-.0995405-9.475071.9426297-10.872551 2.0662364-2.770684 5.1885989-1.304836 8.9234238 4.189258C12.93037 70.392518 16.208997 74.75 18.4652 77.5c7.088825 8.640299 9.278751 16.782861 6.487917 24.12331-.94842 2.49454-.679032 3.12136 2.864218 6.66461l3.9111 3.9111-.93933-5.84951c-1.481484-9.225672-.662945-19.423144 1.811587-22.569001l2.083502-2.648744 3.157903 3.347984C39.578944 86.32114 41 88.238051 41 88.739552c0 .501501 1.101657 1.946773 2.448127 3.211716 1.34647 1.264943 2.731092 3.588224 3.076937 5.162846.345845 1.574623 1.044188 3.119666 1.551873 3.433436.507684.31377.923063 3.94895.923063 8.07819 0 6.55956-.33094 7.94159-2.620488 10.94334-2.901621 3.80422-3.221196 2.8081 3.615303 11.26892C52.838711 134.35759 63 141.2107 63 139.60913c0-.23351-1.137834-2.61768-2.528519-5.29817-1.390685-2.68048-3.28684-8.54093-4.213677-13.02322-1.447201-6.99882-1.515175-9.31587-.481372-16.40879.662082-4.54254 1.649144-8.704526 2.193471-9.248853 2.856923-2.856923 13.584566 7.520783 18.640447 18.032393 3.420363 7.11123 3.568472 7.85843 3.237008 16.33044-.315524 8.06456-.597117 9.13881-3.072567 11.72149l-2.72521 2.84327 5.468539 2.36065c3.007696 1.29836 5.97664 2.97288 6.597654 3.72116C88.685492 153.73582 90 152.15484 90 145.96788c0-7.18766 1.508062-11.12314 7.456874-19.45965 4.394406-6.1582 12.005246-12.13431 16.574166-13.01421 1.23177-.23721 2.35919-.55791 2.50538-.71266.14619-.15475.5511-3.20636.8998-6.78136.99223-10.172806 2.59849-15.974931 6.36732-23 3.13031-5.834867 9.89977-16.71227 11.20215-18 .27813-.275 1.83715-2.284022 3.46449-4.464493C140.09752 58.355035 142.13594 55.864057 143 55c4.29508-4.295078 7.09406-9.216574 8.56305-15.056539 2.07064-8.231825 3.32278-9.666751 6.31757-7.239772 1.70369 1.380673 2.30044 3.095297 2.57902 7.410281.47213 7.312688 1.92515 18.445446 2.49759 19.13603.11398.1375.40524 1.6.64725 3.25s.85192 3.9 1.35537 5c.50344 1.1 3.47542 7.392443 6.60439 13.983206 7.44403 15.679857 8.66627 19.217554 7.43462 21.518914-.53659 1.00264 5.61481-4.690742 13.66979-12.651957 8.05498-7.961215 17.38725-16.563371 20.73838-19.115903 3.35113-2.552532 6.31797-4.886958 6.59297-5.187613.275-.300656 2.75-2.103585 5.5-4.00651 3.96632-2.8127 7.75109-5.305395 11.983-8.298639 3.00909-1.933797 5.69826-3.946361 8.92261-6.017813 2.08831-1.251973 4.58869-2.961105 6.84439-4.227404 9.36516-5.753425 18.06695-12.558879 26.27363-19.982421 7.04063-7.030829 8.88812-9.924442 11.9802-18.76386C292.87545.8289238 293.59273 0 295.61409 0c1.34677 0 2.72242.71334398 3.05698 1.5852088C299.4852 3.7067851 297.2884 54.291029 296.1342 60c-.50038 2.475-1.43661 7.425-2.08052 11-2.20367 12.234828-7.63261 25.143542-15.38948 36.59245-4.13874 6.10865-12.20732 12.58778-19.6642 15.7905C254.31941 125.39325 242.4667 129 240.5409 129c-.84749 0-1.5409.45-1.5409 1 0 .58847 3.50856 1 8.52568 1h8.52568l-1.52558 2.95014c-1.73194 3.3492-8.41101 9.22023-14.15412 12.44174-2.12941 1.19446-3.70309 2.60743-3.49706 3.13994.20603.5325 3.2607 1.75879 6.78816 2.72509 4.129 1.13108 8.27005 3.20189 11.6254 5.81349 7.29934 5.68137 20.84651 19.0868 27.96152 27.66897 5.80877 7.00657 5.96121 7.33728 4.74051 10.28431-1.92953 4.6583-9.29209 10.49202-17.80617 14.10871-9.71352 4.12619-21.12616 5.09933-27.27668 2.32583-3.73878-1.68596-3.90734-1.96468-3.90734-6.46087 0-5.73859-1.49754-10.44849-4.68899-14.74735-2.91344-3.92437-5.16343-4.10238-8.3867-.66355-3.88851 4.14858-14.82886 11.58039-22.36192 15.19051C192.96707 210.85463 185.68097 213 179.03155 213c-3.80715 0-6.03155.41559-6.03155 1.12689 0 .61979 1.88616 4.54378 4.19148 8.71998 2.30531 4.1762 5.39749 9.8566 6.8715 12.62311 2.23582 4.19631 3.19857 5.08196 5.80853 5.34338 3.71688.37229 3.89251 1.14673.87849 3.8738-1.6929 1.53173-7.62743 4.31284-9.20306 4.31284-.08503 0-1.56211-1.4625-3.28239-3.25z"/>
  <path fill="#fff" d="M153.5 207.58488c-3.85-1.23888-11.37876-4.279-16.73057-6.75583-11.86961-5.49328-17.65137-11.26608-19.35905-19.32905-.65587-3.09678-2.52842-6.54508-3.29644-6.07042-1.14164.70558-8.11394-7.75669-8.11394-9.84788 0-3.06276 3.35303-1.64796 19.52545 8.23866 16.64076 10.17294 19.55632 12.35387 26.00752 19.45449C156.23384 198.44894 162 207.36886 162 209.46676c0 .77645-.76555.60697-8.5-1.88188zm14.58346-1.33488c-1.13393-1.5125-2.42271-3.2-2.86395-3.75-.44125-.55-2.20878-3.025-3.92786-5.5-4.69322-6.75694-15.90995-17.2536-23.79165-22.26432-7.38412-4.69438-29.29888-16.17626-31-16.24195-.55-.02124-.86023-.84888-.68939-1.83921.17084-.99033-1.35715-3.83589-3.39553-6.32346-3.21293-3.92096-4.086004-4.44688-6.560608-3.95195C93.055098 146.93898 93 146.86355 93 142.47138c0-9.60718 11.06484-22.62146 21.5-25.28794 5.2797-1.34912 15.84777.68723 16.32332 3.14532.2148 1.11025 1.31213 1.67124 3.26906 1.67124 2.67566 0 2.88568.23922 2.29083 2.60929-.62483 2.48956-.51072 2.57763 2.48691 1.91924 3.04716-.66927 3.11224-.61233 2.16059 1.89071-.92327 2.42837-.79921 2.58076 2.10103 2.58076 3.18491 0 3.15582-.11857 1.16534 4.75-.33053.80845.39741 1.25 2.06075 1.25 3.38574 0 4.8445 2.88252 4.03155 7.96638-.72311 4.52211-.18266 4.81153 5.28962 2.83273 2.83093-1.02368 3.321-1.67902 3.321-4.44098 0-1.78205.45-3.51821 1-3.85813.55-.33992 1-1.27437 1-2.07656 0-2.5913 9.93057-17.56301 19.5913-29.5366 6.38836-7.917782 13.02404-14.690877 20.65989-21.0877C222.50784 68.991667 225.15383 67.184932 254.5 50.439875c9.9-5.648985 21.375-12.446405 25.5-15.105379 4.125-2.658973 7.77588-4.963956 8.11307-5.122185 2.10542-.987995 5.47945 19.273205 4.51386 27.105909-1.47242 11.94394-3.64881 22.577271-4.76183 23.265151-.4758.294064-.8651 1.24354-.8651 2.109945 0 2.530341-8.46301 19.678414-12.07945 24.475854-5.38026 7.13724-23.18447 16.39239-40.92055 21.27169-3.575.9835-7.0625 1.94753-7.75 2.14228-.6875.19475-1.25.81821-1.25 1.38548 0 .61794 3.0434 1.03138 7.59227 1.03138 8.00284 0 12.31345 1.85021 11.64896 5-.90147 4.27307-16.09841 10.2426-34.49123 13.54855-3.9034.7016-4.46222 1.33923-2.70965 3.0918.72046.72046-1.52694 1.85813-7.3091 3.7C195.13905 159.80316 190.5834 161 189.60757 161c-.97583 0-1.58945.5625-1.3636 1.25C189.648 166.524 215 160.88949 215 156.30344c0-.69593 1.2375-1.55498 2.75-1.90898 1.5125-.35401 5.225-1.31314 8.25-2.13141 9.06295-2.45153 10.56428-2.55591 12.26731-.85288.87441.87441 2.09432 1.58983 2.71092 1.58983 4.81991 0 28.36162 21.91467 32.76445 30.5 3.52131 6.86639 4.40746 11.1305 2.62119 12.61298-.77671.64461-1.57608.9954-1.77637.77952-.54966-.59241-8.87326-14.97757-10.5875-18.29769-3.01378-5.83708-1.98319.10006 1.54739 8.91437 5.82781 14.5495 5.76588 14.05911 1.92422 15.23815l-3.31162 1.01637-2.60138-8.13185c-3.63019-11.34791-4.75522-12.64521-4.01679-4.63185.32944 3.575.992 8.2878 1.47236 10.47289.48036 2.18508.78618 4.05745.6796 4.16081-.10658.10336-1.83638.49472-3.84399.86969-3.52865.65905-3.67148.57043-4.28858-2.66082-1.24266-6.50677-2.84423-11.89288-3.37773-11.35938-.2973.29729-.59399 1.9977-.65932 3.77867C247.02479 209.87576 247.26708 209 244 209h-3v-6.35078c0-7.3883-1.28944-11.66634-5.10894-16.95024l-2.7476-3.80101 1.90631-4.19899c3.44401-7.58605 2.05242-7.05384-5.0676 1.93812-3.85981 4.8746-9.82231 11.00726-13.25 13.62815-11.75344 8.98695-29.42207 15.69561-41.40959 15.72294-4.48861.01024-5.45171-.35405-7.23912-2.73819zm2.17007-56.75678c1.33837-6.47527 2.92099-11.95685 3.60699-12.49322.35171-.275 1.53948-2.3 2.63948-4.5 2.01811-4.03621 13.78553-19.9404 15.56963-21.04303.52964-.32734.72338-.98287.43052-1.45673-.73504-1.18932-8.3445 3.934-9.02432 6.07591-.30358.9565-1.20983 1.99154-2.0139 2.30008-.80406.30855-1.46193 1.2198-1.46193 2.025 0 .8052-.9 1.74964-2 2.09877-1.24471.39506-2 1.51303-2 2.9604 0 1.27909-.675 2.58464-1.5 2.90123-.825.31658-1.5 1.43462-1.5 2.48454s-.69548 2.48614-1.54551 3.1916c-.85003.70546-1.30762 1.9026-1.01686 2.6603.29076.7577-.15217 1.63889-.98429 1.95821-.90595.34764-1.28843 1.28794-.95334 2.34372.3427 1.07976-.05815 2.0002-1.03421 2.37475-.8766.33639-1.46374 1.40218-1.30476 2.36843.15898.96625-.06626 2.32335-.50054 3.01577-1.20351 1.91892.27372 5.40037 2.13904 5.04114.99601-.19181 1.94925-1.86478 2.454-4.30687zM116.25 147.84657c.9625-1.13747 1.75-3.09343 1.75-4.34657 0-1.25314-.7875-3.23767-1.75-4.41007-1.57784-1.92194-2.06973-2.00965-5-.89155-3.27228 1.2486-4.31859 2.74743-2 2.86501.6875.03486.2375.47036-1 .96777-2.70747 1.08827-3.02878 5.04721-.60624 7.46974 2.04472 2.04472 6.14278 1.25698 8.60624-1.65433zM199.96858 102.75c.01728-.4125-.27065-.75-.63984-.75-1.03371 0-4.32874 3.1983-4.32874 4.20167 0 1.05892 4.92288-2.36101 4.96858-3.45167zm-45.56577 30.31479c-.49654-1.06436-3.82781-4.97481-7.40281-8.6899-6.30257-6.54952-6.77337-6.82759-15.5-9.15479-10.22701-2.72731-11.66576-3.5868-11.02219-6.58452 3.843-17.900724 6.78996-24.802162 16.53527-38.723646 3.93745-5.624776 7.68278-10.76483 8.32296-11.422341.64018-.657512 2.96396-3.493605 5.16396-6.302429s4.3375-5.125 4.75-5.147058c.4125-.022059.75 1.785711.75 4.017265 0 6.609023 2.03411 18.217244 3.7574 21.442629.88157 1.65 3.74032 5.475 6.35278 8.5C171.33538 87.050344 175 94.531696 175 99.148647c0 1.640563.45694 3.836633 1.01541 4.880153.8493 1.58692.02714 2.98785-5.02548 8.56321-3.32249 3.66624-7.94192 10.20154-10.26541 14.5229-2.32349 4.32136-4.49325 7.86333-4.82171 7.87105-.32845.00772-1.00345-.8568-1.5-1.92117z"/>
  <path fill="#129712" d="M37.5 167.92392c-3.622283-1.06464-12.315887-5.62442-14.781294-7.75277-1.66445-1.4369-1.489764-1.64843 2.663118-3.22483 2.444427-.92789 7.296009-2.1797 10.781294-2.7818 8.979795-1.5513 19.737342-3.13985 23.836882-3.51994 2.409509-.2234 1.884547-.37437-1.6849-.48454-2.851696-.08802-6.393932-.61971-7.871637-1.18154-1.814631-.68992-3.082865-.69273-3.907109-.00867-.671205.55705-1.521118.71207-1.888696.34449-.367578-.36757-1.289978.18185-2.049778 1.22093-1.077395 1.47343-1.687781 1.63503-2.773206.73421-.896401-.74395-1.913691-.82495-2.858212-.22757-4.638698 2.93381-3.751304-.49413.929857-3.59198 3.692596-2.44364 4.47638-2.56203 14.990289-2.26418 10.465541.29647 11.060134.20807 10.496668-1.56058-.328515-1.03116-.14996-2.15616.396789-2.5 1.38815-.87296-1.185369-12.81054-3.254647-15.09706-1.224584-1.35315-1.552482-3.3715-1.326126-8.16286L59.5 111.5l3.445418 9.41375c1.89498 5.17755 3.60001 8.94996 3.788956 8.38313.188946-.56684-.77359-5.21757-2.138968-10.33497-1.823408-6.83407-2.214021-9.80602-1.471252-11.19389 1.277706-2.38742 3.447405-1.71133 3.156864.98369-.13946 1.29361.496048 2.21823 1.75 2.54615C69.113958 111.58106 70 112.52989 70 113.40638S70.675 115 71.5 115c1.97157 0 1.928493 1.62159-.063382 2.38595-2.105447.80793-.846304 2.61405 1.822399 2.61405 1.665209 0 1.874316.26667.940983 1.2-1.731108 1.73111-1.490719 2.49071.993838 3.14044 2.096591.54827 2.116841.65878.456829 2.49307-1.603112 1.77142-1.609372 1.96836-.081214 2.55477 1.314866.50456 1.410441.93102.46418 2.07119-.824593.99358-.885398 1.98299-.197416 3.21235 1.093369 1.95374-.138807 5.24385-2.482202 6.62787C72.609307 141.73952 72 143.00358 72 144.10871s.454027 1.72872 1.008949 1.38576C74.548355 144.54306 78 145.95454 78 147.53545c0 .77037 1.2375 2.09148 2.75 2.9358l2.75 1.53512-3-.64961c-1.65-.35729-4.041795-1.03372-5.3151-1.50319-3.856794-1.42199-5.473683-1.06588-4.91204 1.08185.292618 1.11897-.080027 2.16034-.883368 2.46861-.764221.29326-1.389492 1.131-1.389492 1.86164 0 2.13642-7.114521 8.36245-12 10.50139-5.349964 2.34229-14.313501 3.38732-18.5 2.15686zM112 164c-.825-.53316-2.4-.98316-3.5-1-3.12029-.04778-5.20834-1.69166-3.86062-3.03938 1.0654-1.0654 5.40317.60319 10.36062 3.98539 1.33333.90966 1.33333 1.02336 0 1.02336-.825 0-2.175-.43621-3-.96937zm-91.611632-33.92502C15.026734 126.97295 10 121.82749 10 119.44123c0-1.06438 2.304724-.57104 9.5 2.03355 5.225 1.89137 9.5 3.24895 9.5 3.01684 0-.23212-1.396616-2.01269-3.103592-3.95682-3.760748-4.28326-2.435409-4.43468 5.603592-.64024 3.3 1.55761 6.264722 2.42224 6.588271 1.9214.323549-.50085 1.183146-.19385 1.910214.68221.727068.87607 1.924846 1.36149 2.661729 1.07872.965832-.37062 1.339786.48428 1.339786 3.0629 0 3.26484-.207052 3.52506-2.372379 2.9816-1.304808-.32749-3.667308.03115-5.25.79698-6.083006 2.94342-10.471118 2.84918-15.989253-.34339zm14.715224-13.60978c-1.706976-1.94413-3.096701-4.08163-3.088279-4.75.011332-.89929.206308-.91496.75-.06028.404078.63521.57311-4.25918.375627-10.87642-.373837-12.526493-.356906-12.570654 3.634288-9.479418 1.017473.788047.95218 1.344647-.323031 2.75374-1.46855 1.622729-1.454142 1.846709.177534 2.759841 1.429154.799795 1.538604 1.27958.5607 2.457882-.969693 1.168405-.891426 1.732715.387538 2.794165 1.461311 1.21278 1.441669 1.44776-.222757 2.66482-1.734096 1.268-1.713607 1.36399.4097 1.91924 2.508687.65604 2.771623 1.4147 1.07747 3.10885-.876825.87682-.831782 1.55023.185698 2.77621.974665 1.1744 1.032407 1.81075.210404 2.31878-.738089.45616-.808142 1.21373-.20101 2.17378 2.693441 4.25912-.044539 3.86853-3.933882-.56119zM19 103.26794c-4.654707-3.02957-13.1482378-11.747696-15.0793588-15.478102-2.1538814-4.160719-2.4719202-9.909992-.8116611-14.672614.8672671-2.487844 1.3992283-2.940338 2.4406392-2.076044.7324125.607849 1.4708714 2.309748 1.6410199 3.782.2190612 1.895481.9661152 2.770094 2.5593608 2.996371 2.479884.3522 2.924433 2.106016 1.017247 4.013202-.9770046.977005-.7695431 1.353886 1 1.816632 2.555717.668335 2.60026.795404 1.197569 3.416356C12.067892 88.74166 12.268232 89 14.464816 89c2.884936 0 2.874565-.022838 1.559935 3.4349-.882404 2.320898-.741981 2.5651 1.475 2.5651 2.170259 0 2.383988.331306 1.870383 2.899329-.463488 2.317441-.175964 3.027521 1.432619 3.538071 2.24813.71353 3.81926 3.59207 1.915862 3.51015-.670238-.02885-2.343615-.78467-3.718615-1.67961z"/>
  <path fill="#14fd14" d="M39.537907 164.47889C35.371122 160.97185 34 160.86279 34 164.03841c0 1.70496-.510982 1.5602-4.555384-1.29056-4.285994-3.02104-4.419051-3.24972-2.25-3.86683 5.294454-1.50632 22.618723-4.53337 30.927411-5.40391l5.622027-.58904-.506527 2.64972c-.433059 2.2654-.922151 2.58873-3.372027 2.22916-1.92552-.2826-2.8655.01467-2.8655.90624 0 1.71576-1.810104 1.67437-5.25-.12005-3.298225-1.72051-3.38567-1.31774-.668441 3.07883C52.226417 163.48438 52.957411 165 52.70599 165c-.251421 0-2.988123-1.11933-6.08156-2.48739C43.530994 161.14455 41 160.17541 41 160.35897c0 .18357.721951 1.78094 1.604336 3.54972.882385 1.76878 1.444885 3.37099 1.25 3.56047-.194885.18947-2.137278-1.15615-4.316429-2.99027zM108.25 162.41556c-1.7875-.78171-3.17188-1.76064-3.17188-2.30906 0-.6819.87838-.67555 5.06981 1.38145 4.82939 2.37009 3.49683 3.15698-1.89793.92761zm-42.289774-25.00835c-1.082784-2.52603-2.242069-5.78853-2.576187-7.25-.499757-2.18598-.108666-1.90963 2.205344 1.55835 1.547058 2.31856 2.998044 4.03035 3.224414 3.80398.22637-.22637-.059607-2.57338-.635505-5.21556-1.335333-6.12643-2.402958-13.86862-1.829402-13.26644.242259.25435 1.871964 4.61307 3.621565 9.68604 3.135928 9.09261 3.298992 12.76255.644764 14.51111-2.027433 1.33564-2.667368.80946-4.654993-3.82748zM18.5 126.32031c-5.251578-2.71672-6.456354-3.88474-6.484687-6.27031-.01191-.97153.313854-1.02708 1.184687-.25.696423.62145 1.8975 1.21068 2.75 1.22374.8525.01305 4.119221 1.08039 7.259381 2.37185 3.140159 1.29147 5.850968 1.92336 6.02402 1.40421.173051-.51916 2.509062-.08194 5.191135.97159l4.876495 1.9155-4.790087.65656c-7.819139 1.07173-10.742408.70234-16.010944-2.02314zm18.248046-10.16969c-1.87995-3.1825-3.917982-16.400018-3.153256-18.738366.452172-1.382633 1.035328-.87258 1.527349-.03232.527176.900297-.122723 2.250875.652402 4.544366.336321.99513-.119419 2.31267-.284382 3.2459-.185311 1.04834 1.21331 2.40965 1.437042 2.6137 1.03747.9462-.12979 3.25328.935684 5.8802.532737 1.31346.507709 1.35837.338973 2.26242-.189393 1.01473 1.675071 3.16723.351729 3.16723-.41418 0-.879797-1.37597-1.805541-2.94313zM13.5 96.347353C9.9676297 94.55204 5 87.256235 5 83.863665c0-1.307278-.4129822-3.816853-.9177382-5.576835-1.1676211-4.071257-.3495405-7.753541 1.3999952-6.301555.6808843.565083 1.0319265 2.10528.7800937 3.422658-.3412538 1.785154.067756 2.593041 1.6398857 3.061038 2.7649006.823066 1.2593753 1.445009 1.2593753 4.153094 0 1.063901.9481943 2.145944 1.3896893 3.27642.441495 1.130476.37629 2.309386.97449 3.44202.602802 1.141347 1.578081 1.788594 2.141868 2.683674.563787.895081.624746 2.081741 1.499897 2.93315 3.455753 3.362002 2.745558 3.632972-1.667556 1.390024z"/>
  <path fill="#ffeb00" d="M87.063876 163.06064C84.232981 161.26934 91.243211 149 95.097589 149c.961928 0 3.085947 1.125 4.720042 2.5 1.634099 1.375 2.810229 2.64726 3.692849 2.67678 2.64297.08839 2.09588 1.99882-5.488283 5.81206-8.672844 4.36062-8.845181 4.40893-10.958321 3.0718z"/>
</svg>